<svg width="1080" height="1080" viewBox="0 0 1080 1080" fill="none" xmlns="http://www.w3.org/2000/svg">
<g filter="url(#filter0_i_210_290)">
<path d="M638.092 873.14C730.7 803.606 864.342 694.744 920.034 607.681C961.704 542.637 975.263 462.053 957.138 387.128C918.413 216.454 703.971 146.712 570.396 261.088C562.883 267.478 555.958 274.562 548.85 281.836C545.95 284.805 543.017 287.805 540 290.802C536.983 287.805 534.05 284.804 531.15 281.836C524.042 274.562 517.117 267.478 509.604 261.088C376.029 146.712 161.588 216.454 122.862 387.128C104.737 462.053 118.294 542.637 159.967 607.681C215.658 694.744 349.3 803.606 441.908 873.14C467.713 892.52 540 943 540 943C540 943 612.288 892.52 638.092 873.14Z" fill="#EE6565"/>
</g>
<mask id="mask0_210_290" style="mask-type:alpha" maskUnits="userSpaceOnUse" x="115" y="205" width="850" height="738">
<path d="M638.092 873.14C730.7 803.606 864.342 694.744 920.034 607.681C961.704 542.637 975.263 462.053 957.138 387.128C918.413 216.454 703.971 146.712 570.396 261.088C562.883 267.478 555.958 274.562 548.85 281.836C545.95 284.805 543.017 287.805 540 290.802C536.983 287.805 534.05 284.804 531.15 281.836C524.042 274.562 517.117 267.478 509.604 261.088C376.029 146.712 161.588 216.454 122.862 387.128C104.737 462.053 118.294 542.637 159.967 607.681C215.658 694.744 349.3 803.606 441.908 873.14C467.713 892.52 540 943 540 943C540 943 612.288 892.52 638.092 873.14Z" fill="#EE6565"/>
</mask>
<g mask="url(#mask0_210_290)">
<g filter="url(#filter1_di_210_290)">
<path fill-rule="evenodd" clip-rule="evenodd" d="M833.814 731.73C827.524 849.192 703.812 942.919 552.058 942.919C396.281 942.919 270 840.848 270 722.351C270 706.513 269.637 674.859 300.006 621.453C318.181 589.492 329.58 569.413 336.014 551.059C339.549 540.971 346.423 524.945 366.02 551.059C377.575 566.456 378.022 588.602 378.022 588.602C378.022 588.602 421.015 562.803 450.037 513.515C492.583 441.261 458.637 398.069 447.037 368.034C443.022 357.644 440.501 338.971 468.041 346.916C496.103 355.014 570.29 395.624 609.07 438.428C664.417 499.519 684.086 558.098 684.086 558.098C684.086 558.098 701.807 540.899 708.091 522.901C715.187 502.579 715.292 482.451 738.094 504.132C759.779 524.75 791.985 563.498 810.112 600.335C843.025 667.23 833.814 731.73 833.814 731.73Z" fill="url(#paint0_linear_210_290)"/>
<path fill-rule="evenodd" clip-rule="evenodd" d="M552.053 942.92C444.334 942.92 357.013 874.636 357.013 790.4C357.013 739.573 383.205 708.715 437.717 666.868C472.621 640.073 505.288 607.164 519.172 584.755C521.906 580.344 528.126 557.355 552.11 584.272C564.692 598.388 584.415 623.493 597.062 644.919C618.865 681.859 624.068 717.659 624.068 717.659C624.068 717.659 645.435 707.813 660.075 682.462C664.795 674.292 674.337 643.361 701.013 674.287C720.586 696.982 747.474 737.787 747.093 790.4C747.093 874.636 659.769 942.92 552.053 942.92Z" fill="#FC9502"/>
<path fill-rule="evenodd" clip-rule="evenodd" d="M555.059 776.321C582.815 776.321 582.815 816.513 618.072 870.179C641.549 905.914 606.433 942.92 555.059 942.92C503.685 942.92 477.043 910.353 477.043 870.179C477.043 830.008 527.303 776.321 555.059 776.321Z" fill="#FCE202"/>
</g>
</g>
<defs>
<filter id="filter0_i_210_290" x="115" y="201" width="850" height="742" filterUnits="userSpaceOnUse" color-interpolation-filters="sRGB">
<feFlood flood-opacity="0" result="BackgroundImageFix"/>
<feBlend mode="normal" in="SourceGraphic" in2="BackgroundImageFix" result="shape"/>
<feColorMatrix in="SourceAlpha" type="matrix" values="0 0 0 0 0 0 0 0 0 0 0 0 0 0 0 0 0 0 127 0" result="hardAlpha"/>
<feOffset dy="-4"/>
<feGaussianBlur stdDeviation="5"/>
<feComposite in2="hardAlpha" operator="arithmetic" k2="-1" k3="1"/>
<feColorMatrix type="matrix" values="0 0 0 0 0.731944 0 0 0 0 0.272446 0 0 0 0 0.272446 0 0 0 0.5 0"/>
<feBlend mode="normal" in2="shape" result="effect1_innerShadow_210_290"/>
</filter>
<filter id="filter1_di_210_290" x="230" y="309" width="645" height="677.92" filterUnits="userSpaceOnUse" color-interpolation-filters="sRGB">
<feFlood flood-opacity="0" result="BackgroundImageFix"/>
<feColorMatrix in="SourceAlpha" type="matrix" values="0 0 0 0 0 0 0 0 0 0 0 0 0 0 0 0 0 0 127 0" result="hardAlpha"/>
<feOffset dy="4"/>
<feGaussianBlur stdDeviation="20"/>
<feComposite in2="hardAlpha" operator="out"/>
<feColorMatrix type="matrix" values="0 0 0 0 0.790278 0 0 0 0 0.323794 0 0 0 0 0.323794 0 0 0 1 0"/>
<feBlend mode="normal" in2="BackgroundImageFix" result="effect1_dropShadow_210_290"/>
<feBlend mode="normal" in="SourceGraphic" in2="effect1_dropShadow_210_290" result="shape"/>
<feColorMatrix in="SourceAlpha" type="matrix" values="0 0 0 0 0 0 0 0 0 0 0 0 0 0 0 0 0 0 127 0" result="hardAlpha"/>
<feOffset dy="4"/>
<feGaussianBlur stdDeviation="2"/>
<feComposite in2="hardAlpha" operator="arithmetic" k2="-1" k3="1"/>
<feColorMatrix type="matrix" values="0 0 0 0 0 0 0 0 0 0 0 0 0 0 0 0 0 0 0.25 0"/>
<feBlend mode="normal" in2="shape" result="effect2_innerShadow_210_290"/>
</filter>
<linearGradient id="paint0_linear_210_290" x1="552.482" y1="943.361" x2="552.482" y2="345.452" gradientUnits="userSpaceOnUse">
<stop stop-color="#FF4C0D"/>
<stop offset="1" stop-color="#FC9502"/>
</linearGradient>
</defs>
</svg>