<svg width="1806" height="483" viewBox="0 0 1806 483" fill="none" xmlns="http://www.w3.org/2000/svg">
<g filter="url(#filter0_f_205_22)">
<path fill-rule="evenodd" clip-rule="evenodd" d="M766.913 228.492C736.447 227.267 710.033 234.39 690.952 248.549C672.048 262.554 661.796 282.364 660.423 304.689C658.037 343.468 682.597 375.431 714.731 400.814C746.728 426.085 787.708 445.975 821.722 460.985C824.208 462.084 827.007 462.722 829.882 462.843C832.758 462.965 835.625 462.568 838.24 461.684C873.944 449.621 917.147 432.972 952.119 410.268C987.214 387.516 1015.63 357.576 1018 319.064C1019.38 296.651 1011.56 276.132 994.443 260.679C977.168 245.094 951.757 235.905 921.386 234.684C895.736 233.653 874.084 239.898 857.122 252.626C851.323 257.041 846.234 261.947 841.956 267.245C838.35 261.63 833.887 256.34 828.659 251.482C813.343 237.456 792.563 229.523 766.913 228.492Z" fill="url(#paint0_linear_205_22)"/>
</g>
<g filter="url(#filter1_f_205_22)">
<path fill-rule="evenodd" clip-rule="evenodd" d="M586.452 169.878C568.532 166.024 551.674 167.485 538.042 173.827C524.54 180.097 515.246 190.664 510.826 203.618C503.149 226.122 512.596 247.4 527.608 265.597C542.558 283.715 563.717 299.601 581.522 311.906C582.823 312.807 584.384 313.469 586.075 313.837C587.765 314.204 589.534 314.266 591.232 314.017C614.411 310.614 642.79 305.294 667.252 295.574C691.794 285.839 713.524 271.2 721.149 248.851C725.586 235.845 724.248 223.003 716.564 212.176C708.806 201.256 695.178 193.25 677.315 189.409C662.227 186.164 648.343 187.599 636.202 193.32C632.041 195.313 628.223 197.667 624.824 200.335C623.585 196.67 621.786 193.108 619.461 189.719C612.616 179.915 601.539 173.123 586.452 169.878Z" fill="url(#paint1_linear_205_22)"/>
</g>
<g filter="url(#filter2_f_205_22)">
<path fill-rule="evenodd" clip-rule="evenodd" d="M1055.88 220.871C1026.18 226.307 1003.27 238.896 989.846 256.662C976.539 274.242 973.561 295.529 979.987 317.307C991.151 355.138 1025.84 380.56 1065.53 398.007C1105.05 415.375 1151.33 425.617 1189.23 432.673C1192 433.191 1194.91 433.197 1197.72 432.69C1200.52 432.183 1203.14 431.178 1205.34 429.76C1235.47 410.401 1271.21 385.002 1296.94 355.563C1322.77 326.052 1339.69 291.074 1328.61 253.504C1322.15 231.639 1307.52 213.594 1285.71 202.441C1263.7 191.196 1236.09 187.872 1206.48 193.291C1181.48 197.867 1162.83 208.577 1150.95 224.507C1146.91 230.014 1143.72 235.839 1141.45 241.866C1136.03 237.246 1129.91 233.125 1123.2 229.585C1103.61 219.415 1080.89 216.294 1055.88 220.871Z" fill="url(#paint2_linear_205_22)"/>
</g>
<g filter="url(#filter3_f_205_22)">
<path fill-rule="evenodd" clip-rule="evenodd" d="M460.082 232.3C429.656 230.557 403.052 237.228 383.589 251.057C364.307 264.737 353.518 284.367 351.537 306.661C348.096 345.389 371.78 377.761 403.217 403.685C434.52 429.494 474.95 450.078 508.55 465.662C511.005 466.804 513.786 467.489 516.658 467.66C519.529 467.83 522.407 467.482 525.045 466.643C561.071 455.191 604.719 439.283 640.304 417.182C676.011 395.035 705.237 365.587 708.655 327.126C710.643 304.743 703.385 284.096 686.693 268.356C669.846 252.481 644.69 242.861 614.358 241.123C588.741 239.655 566.922 245.529 549.617 257.965C543.699 262.28 538.478 267.098 534.056 272.322C530.603 266.647 526.286 261.282 521.191 256.336C506.26 242.053 485.699 233.768 460.082 232.3Z" fill="url(#paint3_linear_205_22)"/>
</g>
<g filter="url(#filter4_f_205_22)">
<path fill-rule="evenodd" clip-rule="evenodd" d="M943.978 203.676C923.51 204.712 906.528 210.699 895.102 220.627C883.78 230.45 878.781 243.372 879.948 257.333C881.975 281.583 901.368 300.007 925.207 313.894C948.944 327.718 978.179 337.667 1002.31 344.992C1004.07 345.529 1006 345.761 1007.93 345.667C1009.86 345.573 1011.74 345.157 1013.41 344.453C1036.13 334.846 1063.44 321.947 1084.69 305.768C1106.01 289.552 1122.2 269.261 1120.18 245.177C1119.01 231.16 1111.87 218.864 1099 210.266C1086 201.595 1068.16 197.381 1047.76 198.414C1030.53 199.286 1016.64 204.446 1006.5 213.36C1003.04 216.447 1000.1 219.797 997.733 223.344C994.799 220.065 991.324 217.04 987.377 214.327C975.835 206.51 961.211 202.804 943.978 203.676Z" fill="url(#paint4_linear_205_22)"/>
</g>
<g filter="url(#filter5_f_205_22)">
<path fill-rule="evenodd" clip-rule="evenodd" d="M197.978 28.6198C169.336 20.2743 141.421 20.8469 117.863 29.8588C94.5319 38.766 77.2802 55.2493 67.5632 76.2228C50.6843 112.655 62.1115 148.933 83.251 180.718C104.303 212.364 135.96 240.993 162.802 263.325C164.762 264.959 167.196 266.227 169.897 267.02C172.598 267.814 175.487 268.11 178.317 267.883C216.966 264.786 264.505 259.081 306.461 245.662C348.552 232.225 386.969 210.357 403.731 174.175C413.487 153.118 413.743 131.702 403.211 112.928C392.577 93.9905 371.762 79.2381 343.21 70.9186C319.096 63.8922 296.06 64.7485 275.065 72.895C267.864 75.7409 261.155 79.222 255.074 83.2685C253.743 77.0622 251.472 70.9646 248.306 65.0979C238.957 48.1096 222.092 35.6463 197.978 28.6198Z" fill="url(#paint5_linear_205_22)"/>
</g>
<g filter="url(#filter6_f_205_22)">
<path fill-rule="evenodd" clip-rule="evenodd" d="M1488.69 61.4998C1458.99 66.9358 1436.07 79.5247 1422.65 97.2908C1409.34 114.871 1406.37 136.158 1412.79 157.936C1423.96 195.767 1458.65 221.189 1498.34 238.636C1537.85 256.004 1584.14 266.245 1622.03 273.302C1624.8 273.82 1627.71 273.826 1630.52 273.319C1633.33 272.812 1635.94 271.807 1638.15 270.389C1668.27 251.03 1704.02 225.63 1729.75 196.192C1755.58 166.681 1772.5 131.703 1761.41 94.1333C1754.96 72.268 1740.32 54.2225 1718.51 43.0696C1696.51 31.8249 1668.9 28.5005 1639.29 33.9195C1614.28 38.4963 1595.64 49.2061 1583.75 65.1355C1579.71 70.6429 1576.53 76.4682 1574.25 82.4948C1568.84 77.875 1562.72 73.754 1556 70.2142C1536.42 60.0441 1513.7 56.9229 1488.69 61.4998Z" fill="url(#paint6_linear_205_22)"/>
</g>
<g filter="url(#filter7_f_205_22)">
<path fill-rule="evenodd" clip-rule="evenodd" d="M1322.28 162.719C1303.23 166.204 1288.4 173.784 1279.52 184.276C1270.73 194.659 1268.46 207.091 1272.18 219.707C1278.65 241.622 1300.34 256.057 1325.37 265.793C1350.28 275.485 1379.63 280.953 1403.69 284.656C1405.45 284.928 1407.3 284.9 1409.1 284.574C1410.9 284.249 1412.59 283.635 1414.02 282.786C1433.58 271.186 1456.82 256.007 1473.75 238.583C1490.74 221.116 1502.15 200.56 1495.72 178.795C1491.99 166.129 1482.96 155.775 1469.24 149.513C1455.39 143.2 1437.83 141.56 1418.85 145.035C1402.81 147.97 1390.73 154.408 1382.87 163.815C1380.2 167.066 1378.06 170.493 1376.51 174.028C1373.14 171.395 1369.3 169.061 1365.08 167.071C1352.76 161.358 1338.32 159.784 1322.28 162.719Z" fill="url(#paint7_linear_205_22)"/>
</g>
<g filter="url(#filter8_f_205_22)">
<path fill-rule="evenodd" clip-rule="evenodd" d="M1373.79 215.174C1343.51 218.013 1319 228.546 1303.2 245.043C1287.54 261.366 1281.65 282.264 1285.03 304.462C1290.91 343.021 1321.9 371.279 1358.95 392.043C1395.85 412.715 1440.45 426.887 1477.16 437.17C1479.84 437.924 1482.74 438.181 1485.6 437.92C1488.45 437.658 1491.2 436.885 1493.58 435.667C1526.21 419.027 1565.25 396.87 1594.89 369.836C1624.65 342.737 1646.29 309.437 1640.45 271.143C1637.05 248.857 1624.99 229.66 1604.84 216.694C1584.51 203.62 1557.52 197.933 1527.33 200.763C1501.84 203.153 1481.83 212.187 1467.81 226.992C1463.04 232.117 1459.06 237.631 1455.97 243.424C1451.23 238.365 1445.71 233.741 1439.52 229.644C1421.45 217.847 1399.29 212.784 1373.79 215.174Z" fill="url(#paint8_linear_205_22)"/>
</g>
<g filter="url(#filter9_f_205_22)">
<path fill-rule="evenodd" clip-rule="evenodd" d="M217.72 174.783C187.649 170.691 160.342 175.268 139.256 187.52C118.369 199.637 105.199 218.332 100.467 240.362C92.247 278.628 111.815 312.673 139.898 340.902C167.862 369.007 205.557 392.619 237.073 410.728C239.375 412.054 242.059 412.951 244.897 413.344C247.734 413.736 250.641 413.612 253.371 412.982C290.65 404.379 336.067 391.932 374.224 372.698C412.51 353.428 445.247 326.392 453.41 288.389C458.161 266.272 453.492 245.167 438.826 228.212C424.021 211.112 400.172 199.592 370.195 195.513C344.877 192.068 322.432 196.222 303.667 207.255C297.241 211.09 291.447 215.479 286.399 220.334C283.665 214.42 280.032 208.748 275.572 203.432C262.478 188.064 243.038 178.228 217.72 174.783Z" fill="url(#paint9_linear_205_22)"/>
</g>
<defs>
<filter id="filter0_f_205_22" x="653.263" y="221.357" width="371.891" height="248.508" filterUnits="userSpaceOnUse" color-interpolation-filters="sRGB">
<feFlood flood-opacity="0" result="BackgroundImageFix"/>
<feBlend mode="normal" in="SourceGraphic" in2="BackgroundImageFix" result="shape"/>
<feGaussianBlur stdDeviation="3.5" result="effect1_foregroundBlur_205_22"/>
</filter>
<filter id="filter1_f_205_22" x="503.897" y="163.561" width="223.977" height="154.806" filterUnits="userSpaceOnUse" color-interpolation-filters="sRGB">
<feFlood flood-opacity="0" result="BackgroundImageFix"/>
<feBlend mode="normal" in="SourceGraphic" in2="BackgroundImageFix" result="shape"/>
<feGaussianBlur stdDeviation="2.1" result="effect1_foregroundBlur_205_22"/>
</filter>
<filter id="filter2_f_205_22" x="972.729" y="186.747" width="363.333" height="250.32" filterUnits="userSpaceOnUse" color-interpolation-filters="sRGB">
<feFlood flood-opacity="0" result="BackgroundImageFix"/>
<feBlend mode="normal" in="SourceGraphic" in2="BackgroundImageFix" result="shape"/>
<feGaussianBlur stdDeviation="2" result="effect1_foregroundBlur_205_22"/>
</filter>
<filter id="filter3_f_205_22" x="347.204" y="228.028" width="365.771" height="243.674" filterUnits="userSpaceOnUse" color-interpolation-filters="sRGB">
<feFlood flood-opacity="0" result="BackgroundImageFix"/>
<feBlend mode="normal" in="SourceGraphic" in2="BackgroundImageFix" result="shape"/>
<feGaussianBlur stdDeviation="2" result="effect1_foregroundBlur_205_22"/>
</filter>
<filter id="filter4_f_205_22" x="871.682" y="190.161" width="256.771" height="163.627" filterUnits="userSpaceOnUse" color-interpolation-filters="sRGB">
<feFlood flood-opacity="0" result="BackgroundImageFix"/>
<feBlend mode="normal" in="SourceGraphic" in2="BackgroundImageFix" result="shape"/>
<feGaussianBlur stdDeviation="4.05" result="effect1_foregroundBlur_205_22"/>
</filter>
<filter id="filter5_f_205_22" x="51.8307" y="15.1125" width="366.849" height="260.445" filterUnits="userSpaceOnUse" color-interpolation-filters="sRGB">
<feFlood flood-opacity="0" result="BackgroundImageFix"/>
<feBlend mode="normal" in="SourceGraphic" in2="BackgroundImageFix" result="shape"/>
<feGaussianBlur stdDeviation="3.8" result="effect1_foregroundBlur_205_22"/>
</filter>
<filter id="filter6_f_205_22" x="1402.53" y="24.3755" width="369.333" height="256.32" filterUnits="userSpaceOnUse" color-interpolation-filters="sRGB">
<feFlood flood-opacity="0" result="BackgroundImageFix"/>
<feBlend mode="normal" in="SourceGraphic" in2="BackgroundImageFix" result="shape"/>
<feGaussianBlur stdDeviation="3.5" result="effect1_foregroundBlur_205_22"/>
</filter>
<filter id="filter7_f_205_22" x="1266.46" y="139.247" width="235.074" height="149.594" filterUnits="userSpaceOnUse" color-interpolation-filters="sRGB">
<feFlood flood-opacity="0" result="BackgroundImageFix"/>
<feBlend mode="normal" in="SourceGraphic" in2="BackgroundImageFix" result="shape"/>
<feGaussianBlur stdDeviation="2" result="effect1_foregroundBlur_205_22"/>
</filter>
<filter id="filter8_f_205_22" x="1276.71" y="192.652" width="372.099" height="252.767" filterUnits="userSpaceOnUse" color-interpolation-filters="sRGB">
<feFlood flood-opacity="0" result="BackgroundImageFix"/>
<feBlend mode="normal" in="SourceGraphic" in2="BackgroundImageFix" result="shape"/>
<feGaussianBlur stdDeviation="3.7" result="effect1_foregroundBlur_205_22"/>
</filter>
<filter id="filter9_f_205_22" x="92.6757" y="167.421" width="368.423" height="252.047" filterUnits="userSpaceOnUse" color-interpolation-filters="sRGB">
<feFlood flood-opacity="0" result="BackgroundImageFix"/>
<feBlend mode="normal" in="SourceGraphic" in2="BackgroundImageFix" result="shape"/>
<feGaussianBlur stdDeviation="2.95" result="effect1_foregroundBlur_205_22"/>
</filter>
<linearGradient id="paint0_linear_205_22" x1="844.15" y1="231.579" x2="834.845" y2="463.043" gradientUnits="userSpaceOnUse">
<stop stop-color="#FCD1D1"/>
<stop offset="1" stop-color="#FF7171" stop-opacity="0"/>
</linearGradient>
<linearGradient id="paint1_linear_205_22" x1="631.885" y1="179.638" x2="602.274" y2="317.321" gradientUnits="userSpaceOnUse">
<stop stop-color="#FCD1D1"/>
<stop offset="1" stop-color="#FF7171" stop-opacity="0"/>
</linearGradient>
<linearGradient id="paint2_linear_205_22" x1="1131.18" y1="207.072" x2="1173.29" y2="437.16" gradientUnits="userSpaceOnUse">
<stop stop-color="#FCD1D1"/>
<stop offset="1" stop-color="#FF7171" stop-opacity="0"/>
</linearGradient>
<linearGradient id="paint3_linear_205_22" x1="537.221" y1="236.703" x2="523.962" y2="468.078" gradientUnits="userSpaceOnUse">
<stop stop-color="#FFB9B9"/>
<stop offset="1" stop-color="#EF4646" stop-opacity="0"/>
</linearGradient>
<linearGradient id="paint4_linear_205_22" x1="995.868" y1="201.039" x2="1003.2" y2="345.906" gradientUnits="userSpaceOnUse">
<stop stop-color="#FCD1D1"/>
<stop offset="1" stop-color="#FF2020" stop-opacity="0"/>
</linearGradient>
<linearGradient id="paint5_linear_205_22" x1="270.598" y1="49.7608" x2="204.366" y2="277.064" gradientUnits="userSpaceOnUse">
<stop stop-color="#FCD1D1"/>
<stop offset="1" stop-color="#FF1818" stop-opacity="0"/>
</linearGradient>
<linearGradient id="paint6_linear_205_22" x1="1563.99" y1="47.7009" x2="1606.1" y2="277.789" gradientUnits="userSpaceOnUse">
<stop stop-color="#FCD1D1"/>
<stop offset="1" stop-color="#FF7171" stop-opacity="0"/>
</linearGradient>
<linearGradient id="paint7_linear_205_22" x1="1370.56" y1="153.872" x2="1394.96" y2="287.163" gradientUnits="userSpaceOnUse">
<stop stop-color="#F4AAAA"/>
<stop offset="0.0001" stop-color="#FCC9C9" stop-opacity="0.92"/>
<stop offset="1" stop-color="#FF8484"/>
</linearGradient>
<linearGradient id="paint8_linear_205_22" x1="1450.56" y1="207.96" x2="1472.24" y2="439.172" gradientUnits="userSpaceOnUse">
<stop stop-color="#FCD1D1"/>
<stop offset="1" stop-color="#FF7171" stop-opacity="0"/>
</linearGradient>
<linearGradient id="paint9_linear_205_22" x1="293.959" y1="185.139" x2="262.579" y2="415.75" gradientUnits="userSpaceOnUse">
<stop stop-color="#FCD1D1"/>
<stop offset="1" stop-color="#FF7171" stop-opacity="0"/>
</linearGradient>
</defs>
</svg>
